<svg width="200" height="29" viewBox="0 0 200 29" fill="none" xmlns="http://www.w3.org/2000/svg">
<path d="M50.2724 3.32444C52.345 3.32447 54.1714 3.68404 55.7515 4.40222C57.3318 5.09998 58.625 6.1057 59.6307 7.41911C60.6568 8.73261 61.3039 10.3032 61.5707 12.1298H56.1213C55.8956 10.7958 55.2697 9.76898 54.2435 9.05066C53.2174 8.31188 51.8937 7.94225 50.2724 7.94222C48.7332 7.94222 47.3884 8.28139 46.2391 8.95867C45.1105 9.61538 44.2282 10.5696 43.592 11.8213C42.9763 13.0732 42.6685 14.5407 42.6684 16.2235C42.6684 17.9475 42.9864 19.4462 43.6227 20.7187C44.2589 21.9705 45.1521 22.9449 46.3013 23.6427C47.4506 24.3199 48.8048 24.6591 50.3644 24.6591C51.5137 24.6591 52.5507 24.4739 53.4742 24.1044C54.3975 23.7351 55.126 23.2223 55.6595 22.5658C56.1932 21.909 56.4604 21.1698 56.4604 20.3489V19.3947H49.9027V15.3622H57.7222C58.9947 15.3622 59.9486 15.6701 60.5849 16.2858C61.2415 16.9014 61.5706 17.8142 61.5707 19.0249V28.6302H56.768V25.736H56.6138C56.0391 26.8032 55.1569 27.6143 53.9667 28.1684C52.7763 28.7226 51.3495 29 49.6871 29C47.2654 29 45.1306 28.4663 43.2835 27.3991C41.457 26.3114 40.0209 24.8025 38.9742 22.8733C37.948 20.9441 37.4347 18.7173 37.4347 16.1929C37.4347 13.6071 37.9684 11.3496 39.0355 9.42045C40.1028 7.49124 41.6015 5.99255 43.5307 4.92533C45.4598 3.85828 47.7072 3.32444 50.2724 3.32444Z" fill="white"/>
<path fill-rule="evenodd" clip-rule="evenodd" d="M123.94 12.6836H124.062C124.616 11.76 125.376 11.0521 126.34 10.5596C127.305 10.0465 128.465 9.78934 129.819 9.78933C131.605 9.78933 133.124 10.1903 134.376 10.9907C135.627 11.7705 136.581 12.8888 137.238 14.3458C137.895 15.7824 138.224 17.4655 138.224 19.3947C138.224 21.3033 137.885 22.9864 137.208 24.4436C136.53 25.8801 135.535 26.9983 134.221 27.7987C132.908 28.5991 131.297 29 129.388 29C127.828 29 126.494 28.7022 125.386 28.1071C124.299 27.512 123.426 26.6805 122.77 25.6133H121.476V28.6302H116.305V23.5813H118.829V2.77067H123.94V12.6836ZM128.434 14.2231C127.059 14.2231 125.961 14.613 125.14 15.3929C124.34 16.1522 123.94 17.2088 123.94 18.5631V20.2262C123.94 21.5805 124.34 22.6473 125.14 23.4271C125.961 24.1864 127.059 24.5662 128.434 24.5662C129.993 24.5662 131.163 24.1044 131.943 23.1809C132.723 22.2573 133.113 20.9955 133.113 19.3947C133.113 17.7939 132.723 16.532 131.943 15.6084C131.163 14.6849 129.993 14.2231 128.434 14.2231Z" fill="white"/>
<path fill-rule="evenodd" clip-rule="evenodd" d="M71.8569 9.78933C74.6069 9.78933 76.7003 10.4052 78.1369 11.6364C79.5941 12.8678 80.3232 14.6642 80.3232 17.0244V23.5813H82.724V28.6302H77.5525V25.6133H76.2592C75.6229 26.6805 74.7712 27.5119 73.704 28.1071C72.6369 28.6817 71.3029 28.9684 69.7023 28.9684C67.527 28.9684 65.8234 28.4456 64.5921 27.3991C63.3607 26.332 62.745 24.9362 62.7449 23.2124C62.7449 21.3859 63.3809 19.9793 64.6534 18.9942C65.9258 18.0092 67.7528 17.5169 70.1334 17.5169H75.4276V16.8089C75.4276 14.8181 74.2377 13.8227 71.8569 13.8227C69.7842 13.8227 68.5324 14.5408 68.1014 15.9773H63.0218C63.4323 13.9456 64.3863 12.4062 65.8845 11.3596C67.3827 10.3129 69.3736 9.78933 71.8569 9.78933ZM70.3796 20.9036C68.5327 20.9036 67.6091 21.5905 67.6089 22.9653C67.6089 23.6426 67.8652 24.1661 68.3783 24.5355C68.8914 24.905 69.5891 25.0902 70.4716 25.0902C71.4362 25.0902 72.2879 24.9151 73.0267 24.5662C73.7655 24.2173 74.3509 23.7555 74.7818 23.1809C75.2126 22.5859 75.4276 21.919 75.4276 21.1804V20.9036H70.3796Z" fill="white"/>
<path fill-rule="evenodd" clip-rule="evenodd" d="M147.56 9.78933C150.31 9.78933 152.403 10.4052 153.84 11.6364C155.297 12.8678 156.026 14.6642 156.026 17.0244V23.5813H158.427V28.6302H153.255V25.6133H151.962C151.326 26.6805 150.474 27.5119 149.407 28.1071C148.34 28.6817 147.006 28.9684 145.405 28.9684C143.23 28.9684 141.526 28.4456 140.295 27.3991C139.063 26.332 138.448 24.9362 138.448 23.2124C138.448 21.3859 139.084 19.9793 140.356 18.9942C141.629 18.0092 143.455 17.5169 145.836 17.5169H151.13V16.8089C151.13 14.8181 149.94 13.8227 147.56 13.8227C145.487 13.8227 144.235 14.5408 143.804 15.9773H138.725C139.135 13.9456 140.089 12.4062 141.587 11.3596C143.085 10.3129 145.076 9.78933 147.56 9.78933ZM146.082 20.9036C144.235 20.9036 143.312 21.5905 143.312 22.9653C143.312 23.6426 143.568 24.1661 144.081 24.5355C144.594 24.905 145.292 25.0902 146.174 25.0902C147.139 25.0902 147.991 24.9151 148.729 24.5662C149.468 24.2173 150.054 23.7555 150.485 23.1809C150.915 22.5859 151.13 21.919 151.13 21.1804V20.9036H146.082Z" fill="white"/>
<path fill-rule="evenodd" clip-rule="evenodd" d="M189.141 9.78933C191.891 9.78933 193.985 10.4052 195.421 11.6364C196.878 12.8678 197.607 14.6642 197.607 17.0244V23.5813H200.008V28.6302H194.837V25.6133H193.543C192.907 26.6805 192.056 27.5119 190.988 28.1071C189.921 28.6817 188.587 28.9684 186.987 28.9684C184.811 28.9684 183.108 28.4456 181.876 27.3991C180.645 26.332 180.029 24.9362 180.029 23.2124C180.029 21.3859 180.665 19.9793 181.938 18.9942C183.21 18.0092 185.037 17.5169 187.418 17.5169H192.712V16.8089C192.712 14.8181 191.522 13.8227 189.141 13.8227C187.068 13.8227 185.817 14.5408 185.386 15.9773H180.306C180.717 13.9456 181.671 12.4062 183.169 11.3596C184.667 10.3129 186.658 9.78933 189.141 9.78933ZM187.664 20.9036C185.817 20.9036 184.893 21.5905 184.893 22.9653C184.893 23.6426 185.15 24.1661 185.663 24.5355C186.176 24.905 186.873 25.0902 187.756 25.0902C188.721 25.0902 189.572 24.9151 190.311 24.5662C191.05 24.2173 191.635 23.7555 192.066 23.1809C192.497 22.5859 192.712 21.919 192.712 21.1804V20.9036H187.664Z" fill="white"/>
<path d="M27.1457 14.7769C27.9654 14.7769 28.6302 15.4417 28.6302 16.2614V17.9101C28.6302 23.8305 23.8305 28.6302 17.9101 28.6302C17.1999 28.6301 16.6241 28.0543 16.624 27.3441V16.4923C16.624 15.5451 17.3922 14.7769 18.3394 14.7769H27.1457Z" fill="#FF00AA"/>
<path d="M107.667 9.82089C110.048 9.82089 111.937 10.5186 113.332 11.9142C114.728 13.2893 115.425 15.1569 115.425 17.5169V28.6302H110.315V18.5018C110.315 15.7518 109.012 14.3766 106.405 14.3764C103.799 14.3764 102.496 15.7517 102.496 18.5018V28.6302H97.3855V18.5018C97.3855 15.7517 96.061 14.3764 93.4135 14.3764C92.1412 14.3765 91.1768 14.7157 90.5201 15.3929C89.884 16.0701 89.5659 17.1063 89.5659 18.5018V28.6302H84.4557V15.208H81.9313V10.1591H87.1028V13.176H88.4575C89.1142 12.1088 89.9659 11.2875 91.0126 10.7129C92.0593 10.1178 93.3525 9.82089 94.8917 9.82089C96.3692 9.82092 97.6313 10.0873 98.6779 10.6209C99.7451 11.134 100.597 11.9036 101.233 12.9298H101.357C102.773 10.857 104.876 9.82091 107.667 9.82089Z" fill="white"/>
<path d="M170.871 9.82089C173.437 9.8209 175.417 10.5288 176.813 11.9449C178.229 13.3404 178.937 15.2182 178.937 17.5782V28.6302H173.827V18.5324C173.827 17.178 173.457 16.152 172.718 15.4542C172 14.7359 170.943 14.3764 169.547 14.3764C168.152 14.3765 167.084 14.7359 166.345 15.4542C165.627 16.152 165.269 17.1781 165.269 18.5324V28.6302H160.158V15.208H157.634V10.1591H162.805V13.176H164.099C164.817 12.1089 165.72 11.2875 166.807 10.7129C167.895 10.1177 169.25 9.82089 170.871 9.82089Z" fill="white"/>
<path d="M7.59318 22.0733C9.27295 23.5655 11.4493 24.4742 13.8533 24.4742V26.7831C13.8532 27.8031 13.0213 28.6436 12.0107 28.5049C9.20535 28.1196 6.66706 26.8643 4.65295 25.0136L7.59318 22.0733Z" fill="#8000FF"/>
<path d="M5.78936 8.67186C4.75473 10.2941 4.15605 12.2406 4.156 14.3151C4.15605 16.3898 4.75547 18.3361 5.79026 19.9584L2.80313 22.9446C1.0454 20.5449 6.09027e-05 17.5567 0 14.3151C6.00769e-05 11.0736 1.04451 8.08438 2.80223 5.68474L5.78936 8.67186Z" fill="#8000FF"/>
<path d="M13.8533 21.7036C10.0975 21.7036 6.92681 18.467 6.92667 14.3151C6.92681 10.1632 10.0975 6.92667 13.8533 6.92667V21.7036Z" fill="#8000FF"/>
<path d="M22.6271 0C25.9425 0 28.6302 2.68768 28.6302 6.00311C28.6302 9.31854 25.9425 12.0062 22.6271 12.0062C19.3117 12.0062 16.624 9.31854 16.624 6.00311C16.624 2.68768 19.3117 0 22.6271 0Z" fill="#FF9A1F"/>
<path d="M12.0107 0.125365C13.0213 -0.0133689 13.8532 0.827118 13.8533 1.84711V4.156C11.4491 4.156 9.27212 5.0644 7.59227 6.55688L4.65205 3.61666C6.66625 1.76556 9.20507 0.510677 12.0107 0.125365Z" fill="#8000FF"/>
</svg>
